<?xml version='1.0' encoding='UTF-8'?>
<svg width="21mm" height="21mm" version="1.1" viewBox="0 0 21 21" xmlns="http://www.w3.org/2000/svg"><path d="M0,0H1V1H0zM1,0H2V1H1zM2,0H3V1H2zM3,0H4V1H3zM4,0H5V1H4zM5,0H6V1H5zM6,0H7V1H6zM10,0H11V1H10zM12,0H13V1H12zM14,0H15V1H14zM15,0H16V1H15zM16,0H17V1H16zM17,0H18V1H17zM18,0H19V1H18zM19,0H20V1H19zM20,0H21V1H20zM0,1H1V2H0zM6,1H7V2H6zM8,1H9V2H8zM10,1H11V2H10zM12,1H13V2H12zM14,1H15V2H14zM20,1H21V2H20zM0,2H1V3H0zM2,2H3V3H2zM3,2H4V3H3zM4,2H5V3H4zM6,2H7V3H6zM8,2H9V3H8zM10,2H11V3H10zM11,2H12V3H11zM14,2H15V3H14zM16,2H17V3H16zM17,2H18V3H17zM18,2H19V3H18zM20,2H21V3H20zM0,3H1V4H0zM2,3H3V4H2zM3,3H4V4H3zM4,3H5V4H4zM6,3H7V4H6zM12,3H13V4H12zM14,3H15V4H14zM16,3H17V4H16zM17,3H18V4H17zM18,3H19V4H18zM20,3H21V4H20zM0,4H1V5H0zM2,4H3V5H2zM3,4H4V5H3zM4,4H5V5H4zM6,4H7V5H6zM8,4H9V5H8zM9,4H10V5H9zM10,4H11V5H10zM11,4H12V5H11zM12,4H13V5H12zM14,4H15V5H14zM16,4H17V5H16zM17,4H18V5H17zM18,4H19V5H18zM20,4H21V5H20zM0,5H1V6H0zM6,5H7V6H6zM8,5H9V6H8zM9,5H10V6H9zM10,5H11V6H10zM14,5H15V6H14zM20,5H21V6H20zM0,6H1V7H0zM1,6H2V7H1zM2,6H3V7H2zM3,6H4V7H3zM4,6H5V7H4zM5,6H6V7H5zM6,6H7V7H6zM8,6H9V7H8zM10,6H11V7H10zM12,6H13V7H12zM14,6H15V7H14zM15,6H16V7H15zM16,6H17V7H16zM17,6H18V7H17zM18,6H19V7H18zM19,6H20V7H19zM20,6H21V7H20zM8,7H9V8H8zM0,8H1V9H0zM1,8H2V9H1zM3,8H4V9H3zM6,8H7V9H6zM7,8H8V9H7zM10,8H11V9H10zM11,8H12V9H11zM12,8H13V9H12zM14,8H15V9H14zM15,8H16V9H15zM16,8H17V9H16zM18,8H19V9H18zM19,8H20V9H19zM0,9H1V10H0zM2,9H3V10H2zM3,9H4V10H3zM4,9H5V10H4zM7,9H8V10H7zM8,9H9V10H8zM11,9H12V10H11zM14,9H15V10H14zM15,9H16V10H15zM16,9H17V10H16zM17,9H18V10H17zM20,9H21V10H20zM0,10H1V11H0zM3,10H4V11H3zM4,10H5V11H4zM5,10H6V11H5zM6,10H7V11H6zM7,10H8V11H7zM10,10H11V11H10zM11,10H12V11H11zM13,10H14V11H13zM18,10H19V11H18zM19,10H20V11H19zM3,11H4V12H3zM5,11H6V12H5zM8,11H9V12H8zM9,11H10V12H9zM12,11H13V12H12zM14,11H15V12H14zM15,11H16V12H15zM20,11H21V12H20zM0,12H1V13H0zM1,12H2V13H1zM3,12H4V13H3zM4,12H5V13H4zM5,12H6V13H5zM6,12H7V13H6zM8,12H9V13H8zM10,12H11V13H10zM11,12H12V13H11zM17,12H18V13H17zM18,12H19V13H18zM19,12H20V13H19zM20,12H21V13H20zM8,13H9V14H8zM9,13H10V14H9zM17,13H18V14H17zM0,14H1V15H0zM1,14H2V15H1zM2,14H3V15H2zM3,14H4V15H3zM4,14H5V15H4zM5,14H6V15H5zM6,14H7V15H6zM8,14H9V15H8zM9,14H10V15H9zM10,14H11V15H10zM11,14H12V15H11zM12,14H13V15H12zM18,14H19V15H18zM20,14H21V15H20zM0,15H1V16H0zM6,15H7V16H6zM13,15H14V16H13zM14,15H15V16H14zM15,15H16V16H15zM18,15H19V16H18zM19,15H20V16H19zM20,15H21V16H20zM0,16H1V17H0zM2,16H3V17H2zM3,16H4V17H3zM4,16H5V17H4zM6,16H7V17H6zM10,16H11V17H10zM12,16H13V17H12zM13,16H14V17H13zM14,16H15V17H14zM16,16H17V17H16zM17,16H18V17H17zM18,16H19V17H18zM20,16H21V17H20zM0,17H1V18H0zM2,17H3V18H2zM3,17H4V18H3zM4,17H5V18H4zM6,17H7V18H6zM8,17H9V18H8zM9,17H10V18H9zM10,17H11V18H10zM13,17H14V18H13zM14,17H15V18H14zM15,17H16V18H15zM19,17H20V18H19zM20,17H21V18H20zM0,18H1V19H0zM2,18H3V19H2zM3,18H4V19H3zM4,18H5V19H4zM6,18H7V19H6zM9,18H10V19H9zM10,18H11V19H10zM11,18H12V19H11zM14,18H15V19H14zM15,18H16V19H15zM17,18H18V19H17zM20,18H21V19H20zM0,19H1V20H0zM6,19H7V20H6zM8,19H9V20H8zM11,19H12V20H11zM12,19H13V20H12zM17,19H18V20H17zM18,19H19V20H18zM20,19H21V20H20zM0,20H1V21H0zM1,20H2V21H1zM2,20H3V21H2zM3,20H4V21H3zM4,20H5V21H4zM5,20H6V21H5zM6,20H7V21H6zM8,20H9V21H8zM9,20H10V21H9zM10,20H11V21H10zM15,20H16V21H15zM16,20H17V21H16zM18,20H19V21H18z" id="qr-path" fill="#000000" fill-opacity="1" fill-rule="nonzero" stroke="none" /></svg>