<?xml version='1.0' encoding='UTF-8'?>
<svg width="21mm" height="21mm" version="1.1" viewBox="0 0 21 21" xmlns="http://www.w3.org/2000/svg"><path d="M0,0H1V1H0zM1,0H2V1H1zM2,0H3V1H2zM3,0H4V1H3zM4,0H5V1H4zM5,0H6V1H5zM6,0H7V1H6zM8,0H9V1H8zM12,0H13V1H12zM14,0H15V1H14zM15,0H16V1H15zM16,0H17V1H16zM17,0H18V1H17zM18,0H19V1H18zM19,0H20V1H19zM20,0H21V1H20zM0,1H1V2H0zM6,1H7V2H6zM8,1H9V2H8zM9,1H10V2H9zM11,1H12V2H11zM14,1H15V2H14zM20,1H21V2H20zM0,2H1V3H0zM2,2H3V3H2zM3,2H4V3H3zM4,2H5V3H4zM6,2H7V3H6zM8,2H9V3H8zM9,2H10V3H9zM10,2H11V3H10zM11,2H12V3H11zM12,2H13V3H12zM14,2H15V3H14zM16,2H17V3H16zM17,2H18V3H17zM18,2H19V3H18zM20,2H21V3H20zM0,3H1V4H0zM2,3H3V4H2zM3,3H4V4H3zM4,3H5V4H4zM6,3H7V4H6zM8,3H9V4H8zM10,3H11V4H10zM12,3H13V4H12zM14,3H15V4H14zM16,3H17V4H16zM17,3H18V4H17zM18,3H19V4H18zM20,3H21V4H20zM0,4H1V5H0zM2,4H3V5H2zM3,4H4V5H3zM4,4H5V5H4zM6,4H7V5H6zM9,4H10V5H9zM10,4H11V5H10zM11,4H12V5H11zM12,4H13V5H12zM14,4H15V5H14zM16,4H17V5H16zM17,4H18V5H17zM18,4H19V5H18zM20,4H21V5H20zM0,5H1V6H0zM6,5H7V6H6zM8,5H9V6H8zM10,5H11V6H10zM12,5H13V6H12zM14,5H15V6H14zM20,5H21V6H20zM0,6H1V7H0zM1,6H2V7H1zM2,6H3V7H2zM3,6H4V7H3zM4,6H5V7H4zM5,6H6V7H5zM6,6H7V7H6zM8,6H9V7H8zM10,6H11V7H10zM12,6H13V7H12zM14,6H15V7H14zM15,6H16V7H15zM16,6H17V7H16zM17,6H18V7H17zM18,6H19V7H18zM19,6H20V7H19zM20,6H21V7H20zM0,8H1V9H0zM1,8H2V9H1zM4,8H5V9H4zM5,8H6V9H5zM6,8H7V9H6zM12,8H13V9H12zM15,8H16V9H15zM17,8H18V9H17zM18,8H19V9H18zM19,8H20V9H19zM20,8H21V9H20zM0,9H1V10H0zM1,9H2V10H1zM7,9H8V10H7zM10,9H11V10H10zM12,9H13V10H12zM14,9H15V10H14zM18,9H19V10H18zM2,10H3V11H2zM4,10H5V11H4zM5,10H6V11H5zM6,10H7V11H6zM7,10H8V11H7zM8,10H9V11H8zM12,10H13V11H12zM15,10H16V11H15zM16,10H17V11H16zM20,10H21V11H20zM0,11H1V12H0zM1,11H2V12H1zM3,11H4V12H3zM5,11H6V12H5zM7,11H8V12H7zM8,11H9V12H8zM10,11H11V12H10zM11,11H12V12H11zM12,11H13V12H12zM15,11H16V12H15zM17,11H18V12H17zM19,11H20V12H19zM0,12H1V13H0zM1,12H2V13H1zM3,12H4V13H3zM4,12H5V13H4zM5,12H6V13H5zM6,12H7V13H6zM7,12H8V13H7zM9,12H10V13H9zM11,12H12V13H11zM13,12H14V13H13zM14,12H15V13H14zM15,12H16V13H15zM17,12H18V13H17zM18,12H19V13H18zM20,12H21V13H20zM8,13H9V14H8zM9,13H10V14H9zM10,13H11V14H10zM11,13H12V14H11zM12,13H13V14H12zM15,13H16V14H15zM16,13H17V14H16zM17,13H18V14H17zM19,13H20V14H19zM20,13H21V14H20zM0,14H1V15H0zM1,14H2V15H1zM2,14H3V15H2zM3,14H4V15H3zM4,14H5V15H4zM5,14H6V15H5zM6,14H7V15H6zM9,14H10V15H9zM10,14H11V15H10zM11,14H12V15H11zM14,14H15V15H14zM15,14H16V15H15zM18,14H19V15H18zM20,14H21V15H20zM0,15H1V16H0zM6,15H7V16H6zM8,15H9V16H8zM9,15H10V16H9zM13,15H14V16H13zM14,15H15V16H14zM15,15H16V16H15zM16,15H17V16H16zM18,15H19V16H18zM19,15H20V16H19zM0,16H1V17H0zM2,16H3V17H2zM3,16H4V17H3zM4,16H5V17H4zM6,16H7V17H6zM8,16H9V17H8zM9,16H10V17H9zM12,16H13V17H12zM13,16H14V17H13zM14,16H15V17H14zM16,16H17V17H16zM17,16H18V17H17zM18,16H19V17H18zM20,16H21V17H20zM0,17H1V18H0zM2,17H3V18H2zM3,17H4V18H3zM4,17H5V18H4zM6,17H7V18H6zM9,17H10V18H9zM10,17H11V18H10zM12,17H13V18H12zM13,17H14V18H13zM14,17H15V18H14zM18,17H19V18H18zM19,17H20V18H19zM20,17H21V18H20zM0,18H1V19H0zM2,18H3V19H2zM3,18H4V19H3zM4,18H5V19H4zM6,18H7V19H6zM9,18H10V19H9zM10,18H11V19H10zM12,18H13V19H12zM13,18H14V19H13zM18,18H19V19H18zM0,19H1V20H0zM6,19H7V20H6zM8,19H9V20H8zM9,19H10V20H9zM11,19H12V20H11zM12,19H13V20H12zM17,19H18V20H17zM18,19H19V20H18zM20,19H21V20H20zM0,20H1V21H0zM1,20H2V21H1zM2,20H3V21H2zM3,20H4V21H3zM4,20H5V21H4zM5,20H6V21H5zM6,20H7V21H6zM8,20H9V21H8zM9,20H10V21H9zM11,20H12V21H11zM14,20H15V21H14zM15,20H16V21H15zM17,20H18V21H17zM18,20H19V21H18zM19,20H20V21H19zM20,20H21V21H20z" id="qr-path" fill="#000000" fill-opacity="1" fill-rule="nonzero" stroke="none" /></svg>